<svg width="25" height="24" viewBox="0 0 25 24" fill="none" xmlns="http://www.w3.org/2000/svg">
<g clip-path="url(#clip0_26561_963)">
<path d="M24.5 9C24.3705 9.7261 24.0819 10.4146 23.655 11.016L14.872 22.836C14.5935 23.1958 14.2369 23.4875 13.8291 23.6891C13.4213 23.8907 12.973 23.9969 12.5181 23.9997C12.0631 24.0025 11.6135 23.9018 11.2033 23.7052C10.793 23.5086 10.4329 23.2213 10.15 22.865L1.324 10.8C0.94908 10.2567 0.684413 9.64519 0.545 9H6.813L11.566 21.359C11.6383 21.5481 11.7663 21.7108 11.9331 21.8255C12.0999 21.9403 12.2976 22.0017 12.5 22.0017C12.7024 22.0017 12.9001 21.9403 13.0669 21.8255C13.2337 21.7108 13.3617 21.5481 13.434 21.359L18.187 9H24.5ZM18.2 7H24.457C24.3049 6.32341 24.013 5.68611 23.6 5.129L21.042 1.675C20.6716 1.15726 20.1831 0.735251 19.617 0.443959C19.051 0.152667 18.4236 0.000476636 17.787 1.93358e-06H15.587L18.2 7ZM11.608 1.93358e-06L8.949 7H16.061L13.455 1.93358e-06H11.608ZM6.81 7L9.468 1.93358e-06H7.146C6.51478 -0.000619432 5.89242 0.148527 5.33005 0.435189C4.76768 0.72185 4.28135 1.13785 3.911 1.649L1.438 4.891C0.964805 5.51103 0.643545 6.23336 0.5 7H6.81ZM16.044 9H8.956L12.5 18.214L16.044 9Z" fill="url(#paint0_linear_26561_963)"/>
</g>
<defs>
<linearGradient id="paint0_linear_26561_963" x1="0.5" y1="11.9999" x2="24.5" y2="11.9999" gradientUnits="userSpaceOnUse">
<stop stop-color="#4370A1"/>
<stop offset="1" stop-color="#8970AD"/>
</linearGradient>
<clipPath id="clip0_26561_963">
<rect width="24" height="24" fill="white" transform="translate(0.5)"/>
</clipPath>
</defs>
</svg>
