<svg width="25" height="24" viewBox="0 0 25 24" fill="none" xmlns="http://www.w3.org/2000/svg">
<g clip-path="url(#clip0_26561_3318)">
<path d="M18.329 10.762C18.188 10.762 18.047 10.717 17.929 10.629C17.702 10.459 17.608 10.165 17.693 9.89505L18.32 7.88405L16.735 6.59405C16.522 6.41305 16.444 6.11805 16.541 5.85605C16.637 5.59405 16.887 5.41905 17.167 5.41905H19.168L19.876 3.43205C19.973 3.17105 20.222 2.99805 20.501 2.99805C20.78 2.99805 21.029 3.17105 21.126 3.43205L21.834 5.41905H23.835C24.115 5.41905 24.365 5.59405 24.461 5.85705C24.557 6.12005 24.478 6.41505 24.264 6.59605L22.687 7.88105L23.339 9.86805C23.428 10.137 23.338 10.433 23.113 10.606C22.888 10.779 22.579 10.791 22.342 10.637L20.506 9.44105L18.701 10.649C18.589 10.724 18.458 10.762 18.329 10.762ZM10.329 7.76205C10.188 7.76205 10.047 7.71705 9.92898 7.62905C9.70197 7.45905 9.60798 7.16505 9.69298 6.89505L10.32 4.88405L8.73497 3.59405C8.52197 3.41305 8.44398 3.11805 8.54098 2.85605C8.63698 2.59405 8.88698 2.41905 9.16698 2.41905H11.168L11.876 0.432047C11.973 0.171047 12.222 -0.00195312 12.501 -0.00195312C12.78 -0.00195312 13.029 0.171047 13.126 0.432047L13.834 2.41905H15.835C16.115 2.41905 16.365 2.59405 16.461 2.85705C16.557 3.12005 16.478 3.41505 16.264 3.59605L14.687 4.88105L15.339 6.86805C15.428 7.13705 15.338 7.43305 15.113 7.60605C14.888 7.77905 14.579 7.79105 14.342 7.63705L12.506 6.44105L10.701 7.64905C10.589 7.72405 10.458 7.76205 10.329 7.76205ZM2.32897 10.762C2.18797 10.762 2.04697 10.717 1.92897 10.629C1.70197 10.459 1.60797 10.165 1.69297 9.89505L2.31997 7.88405L0.734975 6.59505C0.521975 6.41405 0.443975 6.11905 0.540975 5.85705C0.636975 5.59505 0.886975 5.42005 1.16697 5.42005H3.16797L3.87597 3.43305C3.97297 3.17205 4.22197 2.99905 4.50097 2.99905C4.77997 2.99905 5.02897 3.17205 5.12597 3.43305L5.83397 5.42005H7.83497C8.11497 5.42005 8.36497 5.59505 8.46097 5.85805C8.55697 6.12105 8.47797 6.41605 8.26397 6.59705L6.68697 7.88205L7.33897 9.86905C7.42798 10.138 7.33797 10.434 7.11297 10.607C6.88797 10.78 6.57897 10.792 6.34197 10.638L4.50597 9.44205L2.70097 10.65C2.58897 10.725 2.45897 10.763 2.32997 10.763L2.32897 10.762ZM17.499 14H13.316L13.896 10.735C13.953 10.401 13.925 10.216 13.903 10.136C13.715 9.44605 13.153 9.00005 12.471 9.00005C12.258 9.00005 12.043 9.04405 11.831 9.13205C11.577 9.23705 11.328 9.49905 11.149 9.85105L8.95598 14H7.49997C5.84297 14 4.49997 15.343 4.49997 17V21C4.49997 22.657 5.84297 24 7.49997 24V17C7.49997 16.448 7.94798 16 8.49998 16C9.05198 16 9.49998 16.448 9.49998 17V24H15.879C17.786 24 19.427 22.654 19.801 20.784L20.44 17.588C20.811 15.732 19.391 14 17.498 14H17.499Z" fill="url(#paint0_linear_26561_3318)"/>
</g>
<defs>
<linearGradient id="paint0_linear_26561_3318" x1="0.499756" y1="11.999" x2="24.5013" y2="11.999" gradientUnits="userSpaceOnUse">
<stop stop-color="#4370A1"/>
<stop offset="1" stop-color="#8970AD"/>
</linearGradient>
<clipPath id="clip0_26561_3318">
<rect width="24" height="24" fill="white" transform="translate(0.5)"/>
</clipPath>
</defs>
</svg>
