<svg width="25" height="24" viewBox="0 0 25 24" fill="none" xmlns="http://www.w3.org/2000/svg">
<path d="M19.5 8.424V6.99998C19.5 3.13402 16.366 0 12.5 0C8.634 0 5.50003 3.13402 5.50003 6.99998V8.424C3.68006 9.2183 2.50266 11.0143 2.50003 13V19C2.50331 21.76 4.73995 23.9967 7.5 24H17.5C20.26 23.9967 22.4967 21.76 22.5 19V13C22.4974 11.0143 21.32 9.2183 19.5 8.424ZM13.5 17C13.5 17.5523 13.0523 18 12.5 18C11.9477 18 11.5 17.5523 11.5 17V15C11.5 14.4477 11.9477 14 12.5 14C13.0523 14 13.5 14.4477 13.5 15V17ZM17.5 8.00002H7.5V7.00003C7.5 4.23863 9.73856 2.00002 12.5 2.00002C15.2615 2.00002 17.5 4.23858 17.5 7.00003V8.00002Z" fill="url(#paint0_linear_26561_3195)"/>
<defs>
<linearGradient id="paint0_linear_26561_3195" x1="2.50003" y1="12" x2="22.5" y2="12" gradientUnits="userSpaceOnUse">
<stop stop-color="#4370A1"/>
<stop offset="1" stop-color="#8970AD"/>
</linearGradient>
</defs>
</svg>
