<svg width="24" height="25" viewBox="0 0 24 25" fill="none" xmlns="http://www.w3.org/2000/svg">
<g clip-path="url(#clip0_26561_3211)">
<path d="M13.053 5.4789C14.024 4.5699 15.397 3.1189 15.947 1.7349C16.202 1.0939 15.69 0.399902 15 0.399902H9C8.31 0.399902 7.798 1.0929 8.053 1.7349C8.603 3.1189 9.976 4.5699 10.947 5.4789C5.569 6.2779 1 13.0179 1 18.3999C1 21.7089 3.691 24.3999 7 24.3999H17C20.309 24.3999 23 21.7089 23 18.3999C23 13.0179 18.431 6.2779 13.053 5.4789ZM10.644 14.1609L13.686 14.6679C15.027 14.8909 16.001 16.0409 16.001 17.4009C16.001 19.0549 14.655 20.4009 13.001 20.4009V21.4009C13.001 21.9529 12.553 22.4009 12.001 22.4009C11.449 22.4009 11.001 21.9529 11.001 21.4009V20.4009H10.733C9.665 20.4009 8.67 19.8269 8.135 18.9019C7.859 18.4239 8.022 17.8129 8.5 17.5359C8.976 17.2589 9.589 17.4219 9.866 17.9009C10.044 18.2089 10.377 18.4009 10.733 18.4009H13.001C13.552 18.4009 14.001 17.9519 14.001 17.4009C14.001 17.0229 13.73 16.7029 13.357 16.6409L10.315 16.1339C8.974 15.9109 8 14.7609 8 13.4009C8 11.7469 9.346 10.4009 11 10.4009V9.4009C11 8.8489 11.448 8.4009 12 8.4009C12.552 8.4009 13 8.8489 13 9.4009V10.4009H13.268C14.335 10.4009 15.331 10.9759 15.866 11.9009C16.142 12.3789 15.979 12.9899 15.501 13.2669C15.024 13.5439 14.412 13.3809 14.135 12.9019C13.956 12.5929 13.624 12.4019 13.268 12.4019H11C10.449 12.4019 10 12.8509 10 13.4019C10 13.7799 10.271 14.0999 10.644 14.1619V14.1609Z" fill="url(#paint0_linear_26561_3211)"/>
</g>
<defs>
<linearGradient id="paint0_linear_26561_3211" x1="1" y1="12.3999" x2="23" y2="12.3999" gradientUnits="userSpaceOnUse">
<stop stop-color="#4370A1"/>
<stop offset="1" stop-color="#8970AD"/>
</linearGradient>
<clipPath id="clip0_26561_3211">
<rect width="24" height="24" fill="white" transform="translate(0 0.399902)"/>
</clipPath>
</defs>
</svg>
