<svg width="25" height="24" viewBox="0 0 25 24" fill="none" xmlns="http://www.w3.org/2000/svg">
<g clip-path="url(#clip0_28511_1831)">
<path d="M10.5 23C10.5 23.2652 10.3946 23.5196 10.2071 23.7071C10.0196 23.8946 9.76522 24 9.5 24H1.5C1.23478 24 0.98043 23.8946 0.792893 23.7071C0.605357 23.5196 0.5 23.2652 0.5 23C0.5 22.7348 0.605357 22.4804 0.792893 22.2929C0.98043 22.1054 1.23478 22 1.5 22H9.5C9.76522 22 10.0196 22.1054 10.2071 22.2929C10.3946 22.4804 10.5 22.7348 10.5 23Z" fill="url(#paint0_linear_28511_1831)"/>
<path d="M1.5 20H7.5C7.76522 20 8.01957 19.8946 8.20711 19.7071C8.39464 19.5196 8.5 19.2652 8.5 19C8.5 18.7348 8.39464 18.4804 8.20711 18.2929C8.01957 18.1054 7.76522 18 7.5 18H1.5C1.23478 18 0.98043 18.1054 0.792893 18.2929C0.605357 18.4804 0.5 18.7348 0.5 19C0.5 19.2652 0.605357 19.5196 0.792893 19.7071C0.98043 19.8946 1.23478 20 1.5 20Z" fill="url(#paint1_linear_28511_1831)"/>
<path d="M1.5 16H5.5C5.76522 16 6.01957 15.8946 6.20711 15.7071C6.39464 15.5196 6.5 15.2652 6.5 15C6.5 14.7348 6.39464 14.4804 6.20711 14.2929C6.01957 14.1054 5.76522 14 5.5 14H1.5C1.23478 14 0.98043 14.1054 0.792893 14.2929C0.605357 14.4804 0.5 14.7348 0.5 15C0.5 15.2652 0.605357 15.5196 0.792893 15.7071C0.98043 15.8946 1.23478 16 1.5 16Z" fill="url(#paint2_linear_28511_1831)"/>
<path d="M12.5 0C9.3174 0 6.26515 1.26428 4.01472 3.51472C1.76428 5.76515 0.5 8.8174 0.5 12C0.5 12.061 0.508 12.12 0.509 12.181C0.826596 12.0646 1.16176 12.0034 1.5 12H5.5C5.9909 11.9983 6.47465 12.1176 6.90855 12.3472C7.34245 12.5768 7.71315 12.9097 7.98791 13.3165C8.26267 13.7233 8.43305 14.1915 8.48399 14.6797C8.53493 15.168 8.46487 15.6612 8.28 16.116C8.68945 16.2234 9.07125 16.417 9.3999 16.6838C9.72855 16.9506 9.99648 17.2845 10.1858 17.6631C10.3751 18.0417 10.4814 18.4564 10.4977 18.8794C10.5139 19.3024 10.4397 19.724 10.28 20.116C10.6799 20.218 11.054 20.4028 11.378 20.6585C11.7019 20.9142 11.9687 21.235 12.1609 21.6003C12.353 21.9655 12.4664 22.367 12.4937 22.7788C12.5209 23.1907 12.4614 23.6036 12.319 23.991C12.38 23.991 12.439 24 12.5 24C15.6826 24 18.7348 22.7357 20.9853 20.4853C23.2357 18.2348 24.5 15.1826 24.5 12C24.5 8.8174 23.2357 5.76515 20.9853 3.51472C18.7348 1.26428 15.6826 0 12.5 0ZM16.207 15.707C16.0195 15.8945 15.7652 15.9998 15.5 15.9998C15.2348 15.9998 14.9805 15.8945 14.793 15.707L11.793 12.707C11.6055 12.5195 11.5001 12.2652 11.5 12V7C11.5 6.73478 11.6054 6.48043 11.7929 6.29289C11.9804 6.10536 12.2348 6 12.5 6C12.7652 6 13.0196 6.10536 13.2071 6.29289C13.3946 6.48043 13.5 6.73478 13.5 7V11.586L16.207 14.293C16.3945 14.4805 16.4998 14.7348 16.4998 15C16.4998 15.2652 16.3945 15.5195 16.207 15.707Z" fill="url(#paint3_linear_28511_1831)"/>
</g>
<defs>
<linearGradient id="paint0_linear_28511_1831" x1="0.5" y1="23" x2="10.5" y2="23" gradientUnits="userSpaceOnUse">
<stop stop-color="#4370A1"/>
<stop offset="1" stop-color="#8970AD"/>
</linearGradient>
<linearGradient id="paint1_linear_28511_1831" x1="0.5" y1="19" x2="8.5" y2="19" gradientUnits="userSpaceOnUse">
<stop stop-color="#4370A1"/>
<stop offset="1" stop-color="#8970AD"/>
</linearGradient>
<linearGradient id="paint2_linear_28511_1831" x1="0.5" y1="15" x2="6.5" y2="15" gradientUnits="userSpaceOnUse">
<stop stop-color="#4370A1"/>
<stop offset="1" stop-color="#8970AD"/>
</linearGradient>
<linearGradient id="paint3_linear_28511_1831" x1="0.5" y1="12" x2="24.5" y2="12" gradientUnits="userSpaceOnUse">
<stop stop-color="#4370A1"/>
<stop offset="1" stop-color="#8970AD"/>
</linearGradient>
<clipPath id="clip0_28511_1831">
<rect width="24" height="24" fill="white" transform="translate(0.5)"/>
</clipPath>
</defs>
</svg>
