<svg width="25" height="24" viewBox="0 0 25 24" fill="none" xmlns="http://www.w3.org/2000/svg">
<g clip-path="url(#clip0_28511_1538)">
<path d="M1.02701 1.83891L2.34601 0.519912C2.91401 -0.0480878 3.79301 -0.164088 4.48901 0.237912L8.32101 2.44891C9.05401 2.87191 9.50601 3.65391 9.50601 4.49991V7.58591L14.232 12.3119C15.347 11.7869 16.714 11.9729 17.636 12.8919L23.525 18.7639C24.636 19.8719 24.85 21.6799 23.854 22.8929C22.709 24.2879 20.642 24.3649 19.396 23.1219L13.386 17.1289C12.46 16.2059 12.277 14.8339 12.812 13.7199L8.09201 8.99991H5.00601C4.16001 8.99991 3.37701 8.54791 2.95501 7.81491L0.745008 3.98191C0.344008 3.28591 0.459008 2.40691 1.02701 1.83891ZM11.506 4.49991V6.75791L14.821 10.0719C16.345 9.85991 17.925 10.3549 19.048 11.4749L21.256 13.6769C23.143 12.3579 24.42 10.1989 24.505 7.79591C24.533 7.00191 24.44 6.22691 24.226 5.47891C24.095 5.02191 23.1 4.29891 22.28 5.11891C21.46 5.93891 18.964 8.43491 18.964 8.43491C18.177 9.22191 16.89 9.19891 16.111 8.39891C15.312 7.61991 15.287 6.33191 16.074 5.54491C16.074 5.54491 18.57 3.04891 19.39 2.22891C20.21 1.40891 19.487 0.413912 19.03 0.282912C18.282 0.0689123 17.507 -0.0250877 16.713 0.00391227C14.502 0.0829123 12.5 1.17191 11.166 2.81491C11.386 3.34091 11.506 3.91291 11.506 4.49991ZM10.568 14.3039L8.27501 12.0109L1.35901 18.9059C0.197008 20.0689 0.204008 21.9649 1.35201 23.1369C2.52401 24.2859 4.42001 24.2929 5.58301 23.1309L11.198 17.5319C10.63 16.5579 10.406 15.4189 10.568 14.3039Z" fill="url(#paint0_linear_28511_1538)"/>
</g>
<defs>
<linearGradient id="paint0_linear_28511_1538" x1="0.489258" y1="11.9997" x2="24.5099" y2="11.9997" gradientUnits="userSpaceOnUse">
<stop stop-color="#4370A1"/>
<stop offset="1" stop-color="#8970AD"/>
</linearGradient>
<clipPath id="clip0_28511_1538">
<rect width="24" height="24" fill="white" transform="translate(0.5)"/>
</clipPath>
</defs>
</svg>
