<svg width="20" height="21" viewBox="0 0 20 21" fill="none" xmlns="http://www.w3.org/2000/svg">
<path d="M5.83268 9.99008H14.166L11.4243 7.24841C11.3462 7.17095 11.2842 7.07878 11.2419 6.97723C11.1996 6.87568 11.1778 6.76676 11.1778 6.65675C11.1778 6.54674 11.1996 6.43782 11.2419 6.33627C11.2842 6.23472 11.3462 6.14255 11.4243 6.06508C11.5805 5.90987 11.7917 5.82275 12.0118 5.82275C12.232 5.82275 12.4432 5.90987 12.5993 6.06508L16.1743 9.64841C16.4873 9.95954 16.6642 10.3821 16.666 10.8234C16.662 11.2618 16.4853 11.681 16.1743 11.9901L12.5993 15.5734C12.5216 15.6506 12.4295 15.7117 12.3282 15.7532C12.2269 15.7947 12.1184 15.8159 12.0089 15.8155C11.8994 15.8152 11.7911 15.7932 11.69 15.7509C11.589 15.7087 11.4973 15.6469 11.4202 15.5692C11.343 15.4915 11.2819 15.3994 11.2404 15.2981C11.1988 15.1968 11.1777 15.0883 11.1781 14.9788C11.1784 14.8693 11.2004 14.761 11.2426 14.6599C11.2849 14.5589 11.3466 14.4672 11.4243 14.3901L14.166 11.6567H5.83268C5.61167 11.6567 5.3997 11.569 5.24342 11.4127C5.08714 11.2564 4.99935 11.0444 4.99935 10.8234C4.99935 10.6024 5.08714 10.3904 5.24342 10.2342C5.3997 10.0779 5.61167 9.99008 5.83268 9.99008Z" fill="white"/>
</svg>
