<svg width="34" height="34" viewBox="0 0 34 34" fill="none" xmlns="http://www.w3.org/2000/svg">
<path d="M12.7871 22.6275L19.8582 15.5564L19.8582 20.2092C19.8577 20.3412 19.8833 20.472 19.9335 20.5941C19.9838 20.7161 20.0577 20.827 20.1511 20.9204C20.2444 21.0137 20.3553 21.0877 20.4774 21.1379C20.5995 21.1882 20.7303 21.2138 20.8623 21.2133C21.1265 21.2125 21.3796 21.1072 21.5664 20.9204C21.7532 20.7336 21.8585 20.4804 21.8593 20.2163L21.8523 14.1422C21.8538 13.6126 21.6453 13.104 21.2724 12.728C20.897 12.3594 20.3914 12.1536 19.8653 12.1552L13.7912 12.1482C13.6598 12.1486 13.5298 12.175 13.4086 12.2257C13.2874 12.2764 13.1774 12.3505 13.0848 12.4437C12.9922 12.537 12.9189 12.6475 12.869 12.7691C12.8192 12.8907 12.7937 13.0209 12.7942 13.1523C12.7947 13.2837 12.821 13.4137 12.8717 13.5349C12.9224 13.6561 12.9965 13.7661 13.0898 13.8587C13.183 13.9513 13.2936 14.0246 13.4151 14.0745C13.5367 14.1243 13.6669 14.1497 13.7983 14.1493L18.444 14.1422L11.3729 21.2133C11.1854 21.4008 11.08 21.6552 11.08 21.9204C11.08 22.1856 11.1854 22.44 11.3729 22.6275C11.5605 22.815 11.8148 22.9204 12.08 22.9204C12.3453 22.9204 12.5996 22.815 12.7871 22.6275Z" fill="black"/>
</svg>
